<svg width="49" height="49" viewBox="0 0 49 49" fill="none" xmlns="http://www.w3.org/2000/svg">
<rect width="48.6" height="48.6" rx="24.3" fill="#F2F2F2"/>
<path d="M29.7341 17.4113C28.2014 16.6487 26.3257 16.2001 24.3 16.2001C22.2743 16.2001 20.3986 16.6487 18.8658 17.4113C18.1142 17.7853 17.7384 17.9723 17.3742 18.5602C17.01 19.1482 17.01 19.7175 17.01 20.8561V23.6821C17.01 28.2857 20.6893 30.8452 22.8201 31.9414C23.4144 32.2472 23.7115 32.4001 24.3 32.4001C24.8885 32.4001 25.1856 32.2472 25.7798 31.9414C27.9107 30.8452 31.59 28.2857 31.59 23.6821V20.8561C31.59 19.7175 31.59 19.1482 31.2258 18.5602C30.8617 17.9723 30.4858 17.7853 29.7341 17.4113Z" stroke="#1A94D2" stroke-width="1.215" stroke-linecap="round" stroke-linejoin="round"/>
<path d="M21.8701 23.895C21.8701 23.895 23.0105 24.0991 23.4901 25.515C23.4901 25.515 24.7051 23.085 26.7301 22.275" stroke="#1A94D2" stroke-width="1.215" stroke-linecap="round" stroke-linejoin="round"/>
</svg>
