<svg width="49" height="49" viewBox="0 0 49 49" fill="none" xmlns="http://www.w3.org/2000/svg">
<rect width="48.6" height="48.6" rx="24.3" fill="#F2F2F2"/>
<path d="M29.7341 17.4112C28.2014 16.6485 26.3257 16.2 24.3 16.2C22.2743 16.2 20.3986 16.6485 18.8658 17.4112C18.1142 17.7852 17.7384 17.9722 17.3742 18.5601C17.01 19.1481 17.01 19.7174 17.01 20.8559V23.682C17.01 28.2856 20.6893 30.8451 22.8201 31.9413C23.4144 32.2471 23.7115 32.4 24.3 32.4C24.8885 32.4 25.1856 32.2471 25.7798 31.9413C27.9107 30.8451 31.59 28.2856 31.59 23.682V20.8559C31.59 19.7174 31.59 19.1481 31.2258 18.5601C30.8617 17.9722 30.4858 17.7852 29.7341 17.4112Z" stroke="#1A94D2" stroke-width="1.215" stroke-linecap="round" stroke-linejoin="round"/>
<path d="M21.8701 23.8951C21.8701 23.8951 23.0105 24.0992 23.4901 25.5151C23.4901 25.5151 24.7051 23.0851 26.7301 22.2751" stroke="#1A94D2" stroke-width="1.215" stroke-linecap="round" stroke-linejoin="round"/>
</svg>
