<svg width="21" height="21" viewBox="0 0 21 21" fill="none" xmlns="http://www.w3.org/2000/svg">
<path d="M14.3927 2.91846C13.8158 2.91846 13.2817 3.2267 12.8713 3.77382C12.461 4.32089 12.1939 5.10113 12.1939 5.97028C12.1939 6.83944 12.461 7.61951 12.8713 8.16659C13.2816 8.71375 13.8158 9.02199 14.3927 9.02199C14.9696 9.02199 15.5037 8.71375 15.9141 8.16663C16.3244 7.61955 16.5916 6.83944 16.5916 5.97028C16.5916 5.10113 16.3244 4.32093 15.9141 3.77382C15.5037 3.2267 14.9696 2.91846 14.3927 2.91846ZM4.79766 6.75648C4.39738 6.75648 4.02318 6.96917 3.72861 7.36197C3.43404 7.75469 3.23846 8.32167 3.23846 8.95535C3.23846 9.58902 3.43404 10.156 3.72861 10.5487C4.02318 10.9415 4.39738 11.1542 4.79766 11.1542C5.19793 11.1542 5.57222 10.9415 5.86679 10.5487C6.16135 10.156 6.35677 9.58898 6.35677 8.95535C6.35677 8.32167 6.16135 7.75469 5.86679 7.36197C5.57222 6.96917 5.19793 6.75648 4.79766 6.75648ZM12.346 8.66246C12.2808 8.71289 12.2176 8.76589 12.1566 8.82134C11.6082 9.32204 11.2044 10.0628 10.896 10.9881C10.3127 12.7378 10.0803 15.1183 9.69413 17.5509H19.0913C18.7051 15.1183 18.4726 12.7378 17.8893 10.9881C17.5809 10.0628 17.1772 9.32204 16.6289 8.82134C16.5679 8.76586 16.5047 8.71286 16.4395 8.66246C15.9262 9.31384 15.2025 9.74166 14.3928 9.74166C13.583 9.74166 12.8593 9.31388 12.346 8.66246H12.346ZM3.24925 11.1006C3.22635 11.12 3.20356 11.1397 3.18121 11.1601C2.78609 11.5208 2.48897 12.0617 2.26048 12.7472C1.8367 14.0186 1.65899 15.7594 1.37842 17.5509H8.21681C7.93628 15.7594 7.75857 14.0186 7.33479 12.7472C7.10635 12.0617 6.80926 11.5208 6.41414 11.1601C6.39184 11.1398 6.36916 11.12 6.3461 11.1006C5.95118 11.5669 5.40622 11.8738 4.79766 11.8738C4.18909 11.8738 3.64417 11.5669 3.24925 11.1006Z" fill="black"/>
</svg>
