<svg width="21" height="21" viewBox="0 0 21 21" fill="none" xmlns="http://www.w3.org/2000/svg">
<path fill-rule="evenodd" clip-rule="evenodd" d="M10.2349 19.6167C15.4162 19.6167 19.6167 15.4162 19.6167 10.2349C19.6167 5.05353 15.4162 0.853027 10.2349 0.853027C5.05353 0.853027 0.853027 5.05353 0.853027 10.2349C0.853027 15.4162 5.05353 19.6167 10.2349 19.6167ZM10.2349 17.9109C9.22683 17.9109 8.22867 17.7124 7.29736 17.3266C6.36606 16.9408 5.51986 16.3754 4.80708 15.6626C4.09429 14.9499 3.52888 14.1037 3.14312 13.1724C2.75736 12.2411 2.55881 11.2429 2.55881 10.2349C2.55881 9.22683 2.75736 8.22867 3.14312 7.29736C3.52888 6.36606 4.09429 5.51986 4.80708 4.80708C5.51986 4.09429 6.36606 3.52888 7.29736 3.14312C8.22867 2.75736 9.22683 2.55882 10.2349 2.55882C12.2707 2.55882 14.2231 3.36754 15.6626 4.80708C17.1022 6.24661 17.9109 8.19905 17.9109 10.2349C17.9109 12.2707 17.1022 14.2231 15.6626 15.6626C14.2231 17.1022 12.2707 17.9109 10.2349 17.9109ZM11.0878 5.1175V10.2349H9.38197V5.1175H11.0878Z" fill="black"/>
</svg>
