<svg width="24" height="24" viewBox="0 0 24 24" fill="none" xmlns="http://www.w3.org/2000/svg">
<path d="M10.8172 9.1275C10.1442 9.62694 9.32885 9.89766 8.49074 9.9C7.61849 9.9 6.81824 9.6075 6.16349 9.1275C5.60099 9.59625 5.03999 10.2675 4.58099 11.0947C3.51374 13.017 3.39599 14.9887 4.31849 15.5002C4.72949 15.7342 5.16299 15.5587 5.60999 15.1282C5.52626 15.5921 5.48434 16.0624 5.48474 16.5337C5.48474 18.7372 6.33974 20.5177 7.39199 20.5177C8.02649 20.5177 8.34074 19.869 8.49149 18.8767C8.64149 19.8622 8.95649 20.5177 9.58649 20.5177C10.6342 20.5177 11.496 18.7365 11.496 16.5337C11.496 16.0387 11.4495 15.5662 11.37 15.129C11.82 15.5602 12.252 15.7387 12.6645 15.5017C13.5847 14.9902 13.4655 13.0192 12.399 11.0962C11.9415 10.2682 11.379 9.59775 10.8165 9.129L10.8172 9.1275ZM8.48999 9.15C8.91158 9.14985 9.32901 9.06667 9.71846 8.90519C10.1079 8.74372 10.4617 8.50712 10.7597 8.20891C11.0577 7.91069 11.2941 7.5567 11.4553 7.16714C11.6165 6.77758 11.6994 6.36009 11.6992 5.9385C11.6991 5.51691 11.6159 5.09947 11.4544 4.71003C11.293 4.32058 11.0564 3.96676 10.7581 3.66875C10.4599 3.37074 10.1059 3.13439 9.71638 2.97319C9.32682 2.81199 8.90933 2.7291 8.48774 2.72925C7.63609 2.72955 6.81945 3.06815 6.21746 3.67056C5.61547 4.27297 5.27744 5.08986 5.27774 5.9415C5.27803 6.79314 5.61663 7.60979 6.21905 8.21178C6.82146 8.81377 7.63834 9.1518 8.48999 9.1515V9.15ZM16.4902 13.2525C17.6212 13.2525 18.5392 12.3345 18.5392 11.202C18.5392 10.0695 17.6197 9.15 16.4895 9.15C15.9453 9.1502 15.4235 9.36645 15.0387 9.75124C14.6539 10.136 14.4377 10.6578 14.4375 11.202C14.4379 11.7462 14.6543 12.2679 15.0393 12.6525C15.4242 13.0372 15.9461 13.2525 16.4902 13.2525ZM18.9877 14.4952C18.6952 13.9665 18.3367 13.5375 17.9767 13.2375C17.5567 13.545 17.0467 13.7325 16.4895 13.7325C15.9322 13.7325 15.42 13.545 15.0022 13.2375C14.6422 13.5375 14.2837 13.9665 13.9897 14.4952C13.3072 15.7237 13.2322 16.9837 13.8217 17.3107C14.0842 17.4607 14.3617 17.3482 14.6467 17.0737C14.5951 17.3702 14.569 17.6706 14.5687 17.9715C14.5687 19.3815 15.1147 20.5192 15.7875 20.5192C16.1925 20.5192 16.395 20.1045 16.491 19.4707C16.587 20.1007 16.788 20.5185 17.1915 20.5185C17.8612 20.5185 18.4117 19.38 18.4117 17.9715C18.4117 17.6565 18.3817 17.3535 18.3307 17.0745C18.618 17.3497 18.8947 17.4645 19.1587 17.3122C19.7452 16.9867 19.6687 15.726 18.9877 14.4975V14.4952Z" fill="black"/>
</svg>
