<svg width="21" height="21" viewBox="0 0 21 21" fill="none" xmlns="http://www.w3.org/2000/svg">
<path d="M10.2345 17.0577C12.0441 17.0577 13.7796 16.3388 15.0592 15.0592C16.3388 13.7796 17.0577 12.0441 17.0577 10.2345C17.0577 8.42489 16.3388 6.6894 15.0592 5.40981C13.7796 4.13022 12.0441 3.41135 10.2345 3.41135C8.42489 3.41135 6.6894 4.13022 5.40981 5.40981C4.13022 6.6894 3.41135 8.42489 3.41135 10.2345C3.41135 12.0441 4.13022 13.7796 5.40981 15.0592C6.6894 16.3388 8.42489 17.0577 10.2345 17.0577ZM10.2345 18.7634C5.52397 18.7634 1.70557 14.945 1.70557 10.2345C1.70557 5.52397 5.52397 1.70557 10.2345 1.70557C14.945 1.70557 18.7634 5.52397 18.7634 10.2345C18.7634 14.945 14.945 18.7634 10.2345 18.7634ZM10.2345 11.9403C9.7821 11.9403 9.34823 11.7606 9.02833 11.4407C8.70843 11.1208 8.52872 10.6869 8.52872 10.2345C8.52872 9.7821 8.70843 9.34823 9.02833 9.02833C9.34823 8.70843 9.7821 8.52872 10.2345 8.52872C10.6869 8.52872 11.1208 8.70843 11.4407 9.02833C11.7606 9.34823 11.9403 9.7821 11.9403 10.2345C11.9403 10.6869 11.7606 11.1208 11.4407 11.4407C11.1208 11.7606 10.6869 11.9403 10.2345 11.9403Z" fill="black"/>
</svg>
