<svg width="24" height="24" viewBox="0 0 24 24" fill="none" xmlns="http://www.w3.org/2000/svg">
<g clip-path="url(#clip0_1489_4530)">
<path d="M20.9025 12.402C20.9672 11.9437 20.9997 11.4763 21 11C21 5.477 16.523 1 11 1C5.477 1 1 5.477 1 11C1 15.003 3.352 18.457 6.75 20.0545V16.335L6.7485 16.2505C6.7485 15.0385 7.471 13.9705 8.5775 13.4715C9.177 13.2015 9.9575 12.864 10.9525 12.4595C12.5485 11.8115 13.7125 11.39 14.445 11.1395C15.455 10.7945 16.545 10.7945 17.555 11.1395C18.2645 11.3825 19.3805 11.786 20.9025 12.4015" fill="white"/>
<path d="M1.71387 14.25H6.87437M1.71387 7.6665H20.2849" stroke="black" stroke-width="1.5" stroke-linecap="round" stroke-linejoin="round"/>
<path d="M9.50302 16.9785C8.83102 16.6755 8.83102 15.826 9.50302 15.523C10.2625 15.1825 11.0283 14.8563 11.8 14.5445C13.3575 13.912 14.4815 13.5055 15.173 13.2695C15.7092 13.0856 16.2914 13.0856 16.8275 13.2695C17.5185 13.5055 18.6425 13.912 20.2 14.5445C20.9718 14.8565 21.7378 15.1827 22.4975 15.523C23.1695 15.826 23.1695 16.6755 22.4975 16.9785C21.7379 17.319 20.9719 17.6452 20.2 17.957C18.643 18.5895 17.5185 18.996 16.8275 19.232C16.2912 19.416 15.7088 19.416 15.1725 19.232C14.482 18.996 13.3575 18.5895 11.8 17.957C11.0281 17.6452 10.2622 17.319 9.50252 16.9785" fill="white"/>
<path d="M11.75 17.937V19.4805C11.75 20.2745 11.7825 20.8355 11.8215 21.2225C11.8725 21.7335 12.1615 22.169 12.63 22.379C13.264 22.664 14.361 23.001 16 23.001C17.639 23.001 18.736 22.6635 19.37 22.379C19.838 22.169 20.1275 21.7335 20.1785 21.2225C20.2175 20.8355 20.25 20.2745 20.25 19.4805V17.937L20.2 17.957C18.643 18.59 17.5185 18.997 16.8275 19.2325C16.2912 19.4165 15.7088 19.4165 15.1725 19.2325C14.4815 18.9965 13.3575 18.59 11.8 17.9575L11.75 17.937Z" fill="white"/>
<path d="M8.99987 16.251V22.2825M15.2849 11C15.2849 5.477 13.3664 1 10.9999 1C8.63237 1 6.71387 5.477 6.71387 11C6.71387 12.1375 6.79537 13.231 6.94537 14.25" stroke="black" stroke-width="1.5" stroke-linecap="round" stroke-linejoin="round"/>
<path d="M20.8885 12.5C20.9625 12.01 20.9997 11.51 21 11C21 5.477 16.523 1 11 1C5.477 1 1 5.477 1 11C1 14.9045 3.2375 18.286 6.5 19.9325" stroke="black" stroke-width="1.5" stroke-linecap="round" stroke-linejoin="round"/>
<path d="M9.50302 16.979C8.83102 16.676 8.83102 15.8265 9.50302 15.5235C10.2625 15.183 11.0283 14.8568 11.8 14.545C13.3575 13.9125 14.4815 13.506 15.173 13.27C15.7092 13.0861 16.2914 13.0861 16.8275 13.27C17.5185 13.506 18.6425 13.9125 20.2 14.545C20.9718 14.857 21.7378 15.1832 22.4975 15.5235C23.1695 15.8265 23.1695 16.676 22.4975 16.979C21.7379 17.3195 20.9719 17.6457 20.2 17.9575C18.643 18.59 17.5185 18.9965 16.8275 19.2325C16.2912 19.4165 15.7088 19.4165 15.1725 19.2325C14.482 18.9965 13.3575 18.59 11.8 17.9575C11.0281 17.6457 10.2622 17.3195 9.50252 16.979" stroke="black" stroke-width="1.5" stroke-linecap="round" stroke-linejoin="round"/>
<path d="M11.75 17.937V19.4805C11.75 20.2745 11.7825 20.8355 11.8215 21.2225C11.8725 21.7335 12.1615 22.169 12.63 22.379C13.264 22.664 14.361 23.001 16 23.001C17.639 23.001 18.736 22.6635 19.37 22.379C19.838 22.169 20.1275 21.7335 20.1785 21.2225C20.2175 20.8355 20.25 20.2745 20.25 19.4805V17.937" stroke="black" stroke-width="1.5" stroke-linecap="round" stroke-linejoin="round"/>
</g>
<defs>
<clipPath id="clip0_1489_4530">
<rect width="24" height="24" fill="white"/>
</clipPath>
</defs>
</svg>
